<!-- Generator: Adobe Illustrator 19.0.1, SVG Export Plug-In  -->
<svg version="1.1"
   xmlns="http://www.w3.org/2000/svg" xmlns:xlink="http://www.w3.org/1999/xlink" xmlns:a="http://ns.adobe.com/AdobeSVGViewerExtensions/3.0/"
   x="0px" y="0px" width="226px" height="120px" viewBox="0 0 226 120" style="enable-background:new 0 0 226 120;"
   xml:space="preserve">
<style type="text/css">
  .st0{fill:#3F4B51;}
</style>
<defs>
</defs>
<g>
  <path class="st0" d="M55.1,67.7c4.1,1.6,5.8,2.9,5.8,4.3c0,1.3-1.1,2.2-3.4,2.2c-3.2,0-5.4-1.1-6.8-2c-0.7-0.5-1.5-0.2-1.8,0.5
    l-2,4c-0.3,0.7,0,1.4,0.4,1.7c1.7,1.2,5,2.8,10.1,2.8c7.8,0,11.9-4.3,11.9-9.2c0-6.2-4.3-8.3-10.2-10.7c-2.9-1.2-4.4-1.9-4.4-3.3
    c0-1,0.9-2,2.9-2c2.5,0,4.7,0.9,6.2,1.5c0.7,0.3,1.5,0.1,1.9-0.6l1.7-3.5c0.4-0.8,0-1.6-0.7-2.1c-1.7-1.1-4.6-2.3-9.2-2.3
    c-7.6,0-11.1,4.3-11.1,9C46.5,62.6,49.1,65.4,55.1,67.7z"/>
  <path class="st0" d="M74.9,57H78v14.2c0,5.4,1.7,10,8.6,10c3.2,0,7.6-1.4,8.7-2c0.7-0.4,1.1-1,0.9-1.8l-0.9-4.1
    c-0.1-0.7-0.9-1.1-1.7-0.8c-0.8,0.3-3.5,1-4.8,1c-1.5,0-2.7-0.5-2.7-2.5V57h7.5c0.8,0,1.5-0.7,1.5-1.5V51c0-0.9-0.7-1-1.5-1H86v-9
    c0-0.8-0.3-2-1.1-2h-5.5c-0.7,0-1.4,1.2-1.4,2v9h-3.1c-0.8,0-1.9,0.1-1.9,1v4.5C73,56.3,74.1,57,74.9,57z"/>
  <path class="st0" d="M110.2,81.2c4.8,0,7.9-2.1,9.7-3.9l0.9,1.9c0.4,0.9,0.8,0.9,1.3,0.9h2.3c0.8,0,1.6-0.2,1.6-1V62.3
    c0-8.4-2.1-13.4-11.7-13.4c-5,0-9.9,1.3-10.6,1.5c-0.7,0.2-1.3,0.7-1,1.9l0.7,3.5c0.1,0.9,0.7,1.7,1.7,1.3c1.8-0.5,5.9-1.1,8.7-1.1
    c3.3,0,4.4,1.9,4.3,5.8c0,0-2.8-0.9-6-0.9c-7.8,0-12.3,4.2-12.3,9.7C99.8,77.2,104.1,81.2,110.2,81.2z M113.4,66.2
    c2.5,0,4.6,0.9,4.6,0.9v4.5c-1,1.1-2.9,3.3-5.6,3.3c-2.9,0-4.5-1.7-4.5-4.3C107.9,67.9,109.8,66.2,113.4,66.2z"/>
  <path class="st0" d="M133.2,57h2.8v14.2c0,5.4,1.9,10,8.8,10c3.2,0,7.7-1.4,8.8-2c0.7-0.4,1.1-1,0.9-1.8l-0.9-4.1
    c-0.1-0.7-0.9-1.1-1.7-0.8c-0.8,0.3-3.1,1-4.5,1c-1.5,0-2.3-0.5-2.3-2.5V57h6.8c0.8,0,1.2-0.7,1.2-1.5V51c0-0.9-0.4-1-1.2-1H145v-9
    c0-0.8-1-2-1.8-2h-5.5c-0.7,0-1.7,1.2-1.7,2v9h-2.8c-0.8,0-1.2,0.1-1.2,1v4.5C132,56.3,132.4,57,133.2,57z"/>
  <path class="st0" d="M159.3,57h2.7v14.2c0,5.4,1.9,10,8.8,10c3.2,0,7.7-1.4,8.8-2c0.7-0.4,1.1-1,0.9-1.8l-0.8-4.1
    c-0.1-0.7-0.9-1.1-1.7-0.8c-0.8,0.3-3.2,1-4.5,1c-1.5,0-2.4-0.5-2.4-2.5V57h6.9c0.8,0,1.1-0.7,1.1-1.5V51c0-0.9-0.3-1-1.1-1H171v-9
    c0-0.8-0.9-2-1.7-2h-5.5c-0.7,0-1.8,1.2-1.8,2v9h-2.7c-0.8,0-1.3,0.1-1.3,1v4.5C158,56.3,158.5,57,159.3,57z"/>
  <path class="st0" d="M0,0v120h226V0H0z M214,108H12V12h202V108z"/>
</g>
</svg>
