
695 bytes - 37.84% saving
<svg xmlns="http://www.w3.org/2000/svg" fill-rule="evenodd" stroke-miterlimit="1.41" viewBox="0 0 87 85" clip-rule="evenodd" stroke-linejoin="round">
  <path fill="#c2482d" fill-rule="nonzero" d="M43.34 52.68c-2.88 2.23-5.2 7.84-6.96 16.82-2 9.93-6 14.9-11.98 14.9-3.35 0-6.4-1.23-9.12-3.67-2.73-2.43-4.1-5.18-4.1-8.23 0-4.47 3.88-8.93 11.63-13.4 7.6-4.4 12.1-8.13 13.5-11.18-1.9-1.23-5.4-1.85-10.6-1.85-1.4 0-3.4.18-6 .53-2.9.3-5 .44-6.22.44-8.93 0-13.4-3.67-13.4-11 0-3.3 1.08-6.25 3.2-8.87 2.17-2.6 4.7-3.92 7.64-3.92 3.53 0 8 2.4 13.48 7.23 6.54 5.8 11.33 8.84 14.38 9.07.24-1.35.35-2.6.35-3.8 0-2.63-1.67-8-5.02-16.1-1.74-4.3-2.62-7.35-2.62-9.17 0-2.88 1-5.34 3.04-7.4C36.42 1.03 39.27 0 42.9 0c3.64 0 6.47.95 8.5 2.86 2.02 1.9 3.04 4.36 3.04 7.36 0 2.52-1.12 6.5-3.35 11.9-2.7 6.33-4 11.1-4 14.26 0 .88.1 1.94.3 3.17 3.75-1.06 8.7-4.34 14.8-9.86 5.04-4.7 9.3-7 12.76-7 3.4 0 6.15 1.4 8.24 4.2 2.08 2.8 3.1 5.7 3.1 8.9 0 3.3-1.14 5.9-3.46 7.9-2.3 2-5.24 3-8.76 3-.94 0-2.85-.15-5.73-.45-3.1-.35-6-.5-8.64-.5-4.22 0-7.56.7-10.03 2.1 2.5 3.8 6.6 7.28 12.3 10.5 5.23 3 8.7 5.4 10.44 7.24 1.74 1.82 2.6 4.02 2.6 6.6 0 3.06-1.4 5.83-4.22 8.33-2.8 2.5-5.8 3.74-8.98 3.74-3.3 0-5.86-1.3-7.68-3.9-1.82-2.6-3.43-7.2-4.84-13.8-1.4-6.4-3.4-11-6-13.9z"/>
</svg>