<svg xmlns="http://www.w3.org/2000/svg" xmlns:xlink="http://www.w3.org/1999/xlink" width="100" height="100" viewBox="0 0 71 66" version="1.1" xml:space="preserve" style="clip-rule:evenodd;fill-rule:evenodd;stroke-linejoin:round;stroke-miterlimit:1.41">
<style>
.s0{
	fill:none;
	stroke-width:31.04;
	stroke:rgb(0,64,128);
}

</style>  <g transform="matrix(1,0,0,1,-149.205,-56.9857)">
    <g transform="matrix(0.126713,-3.12715e-34,-1.10648e-33,0.126713,69.9697,-63.7563)">
      <path d="M652.2 1034.76C652.2 1034.76 751.7 1439.76 912.2 1439.76 1034.15 1439.76 1120.9 1205.89 1155.52 1093.59L1015.49 1075.89C992.87 1177.18 957.32 1291.76 912.2 1291.76 860.85 1291.76 821.89 1143.37 800.29 1035.05L652.2 1034.76ZM726.29 1090.05C747.89 1198.37 829.15 1349.77 873.2 1351.11 922.8 1352.62 955.65 1275.13 980.37 1201.15L980.4 1201.06C961.32 1253.21 938.37 1291.76 912.2 1291.76 860.85 1291.76 821.89 1143.37 800.29 1035.05L726.29 1090.05Z" class="s0"/>
      <g transform="matrix(1,0,0,1,-570.805,418.762)">
        <path d="M1297 561L1371 616 1297 671 1223 616 1297 561Z" style="fill:white;stroke-width:31.04;stroke:rgb(0,64,128)"/>
      </g>
      <g transform="matrix(0.969871,0,0,0.659864,-170.478,679.91)">
        <circle cx="1295.5" cy="610.5" r="73.5" style="fill:white;stroke-width:37.42;stroke:rgb(0,64,128)"/>
      </g>
    </g>
  </g>
</svg>
